<svg xmlns="http://www.w3.org/2000/svg" width="293.49" height="74.242" viewBox="0 0 293.49 74.242">
  <g id="Group_6" data-name="Group 6" transform="translate(-537 -208)">
    <path id="Path_4" data-name="Path 4" d="M31.316-42.36l-9.152.245a3.473,3.473,0,0,0-.775-1.743,4.316,4.316,0,0,0-1.641-1.2,5.814,5.814,0,0,0-2.334-.438,5.849,5.849,0,0,0-2.945.693,2.053,2.053,0,0,0-1.192,1.875,1.992,1.992,0,0,0,.744,1.59,6.181,6.181,0,0,0,2.742,1.08L22.8-39.119a14.282,14.282,0,0,1,6.981,2.976,7.132,7.132,0,0,1,2.314,5.5,8.866,8.866,0,0,1-1.906,5.606,12.206,12.206,0,0,1-5.147,3.7,19.828,19.828,0,0,1-7.461,1.315q-6.706,0-10.569-2.762A10.235,10.235,0,0,1,2.6-30.191l9.845-.245a3.838,3.838,0,0,0,1.692,2.609,6.233,6.233,0,0,0,3.486.9,6.055,6.055,0,0,0,3.119-.713,2.19,2.19,0,0,0,1.223-1.9,2.035,2.035,0,0,0-.938-1.7,7.6,7.6,0,0,0-2.874-1.009l-5.463-1.04a12.928,12.928,0,0,1-7.012-3.17,7.943,7.943,0,0,1-2.283-5.9,8.538,8.538,0,0,1,1.671-5.371,10.533,10.533,0,0,1,4.811-3.414,20.738,20.738,0,0,1,7.359-1.182q6.36,0,10.029,2.66A9.589,9.589,0,0,1,31.316-42.36ZM42.833-20.61,34.679-51.92H44.688l4.219,20.058h.265L53.7-51.92h9.764l4.648,19.915h.265l4.1-19.915H82.48L74.306-20.61H63.645L58.753-38.854h-.347L53.514-20.61Zm43.662,0V-51.92h9.968v31.31Zm4.994-34.958a5.127,5.127,0,0,1-3.608-1.4,4.431,4.431,0,0,1-1.508-3.374,4.41,4.41,0,0,1,1.508-3.353,5.127,5.127,0,0,1,3.608-1.4,5.117,5.117,0,0,1,3.618,1.4,4.423,4.423,0,0,1,1.5,3.353,4.445,4.445,0,0,1-1.5,3.374A5.117,5.117,0,0,1,91.489-55.569Zm28.966,3.649v7.338H100.7V-51.92Zm-15.614-7.5h9.968v28.966a3.173,3.173,0,0,0,.3,1.478,1.674,1.674,0,0,0,.866.795,3.588,3.588,0,0,0,1.366.234,7.065,7.065,0,0,0,1.213-.112q.642-.112.968-.194l1.508,7.2q-.713.2-2.008.51a16.957,16.957,0,0,1-3.088.387,14.453,14.453,0,0,1-6-.826,7.683,7.683,0,0,1-3.812-3.088,9.542,9.542,0,0,1-1.274-5.279Zm35,39.4a16.727,16.727,0,0,1-8.49-2.038,13.755,13.755,0,0,1-5.432-5.677,17.986,17.986,0,0,1-1.9-8.429,17.952,17.952,0,0,1,1.906-8.449,13.822,13.822,0,0,1,5.443-5.677,16.642,16.642,0,0,1,8.449-2.038,17.148,17.148,0,0,1,7.573,1.57,12.129,12.129,0,0,1,5.055,4.434,12.887,12.887,0,0,1,1.926,6.716h-9.315a6.273,6.273,0,0,0-1.621-3.771,4.644,4.644,0,0,0-3.475-1.366,4.958,4.958,0,0,0-3.037.968,6.2,6.2,0,0,0-2.028,2.854,13.074,13.074,0,0,0-.724,4.658,13.245,13.245,0,0,0,.724,4.678,6.2,6.2,0,0,0,2.028,2.874,4.958,4.958,0,0,0,3.037.968,5,5,0,0,0,2.456-.591,4.71,4.71,0,0,0,1.763-1.743,6.845,6.845,0,0,0,.877-2.8h9.315a13.624,13.624,0,0,1-1.926,6.767,12.014,12.014,0,0,1-4.994,4.495A16.888,16.888,0,0,1,139.84-20.019Zm29.618-18.447V-20.61H159.49V-62.357h9.642v16.185h.347a9.052,9.052,0,0,1,3.475-4.525,10.34,10.34,0,0,1,5.922-1.631,11.019,11.019,0,0,1,5.748,1.457,9.925,9.925,0,0,1,3.8,4.107,13.262,13.262,0,0,1,1.335,6.2V-20.61h-9.968v-18a5.794,5.794,0,0,0-1.3-4.077,4.768,4.768,0,0,0-3.73-1.468,5.46,5.46,0,0,0-2.762.683,4.706,4.706,0,0,0-1.855,1.947A6.682,6.682,0,0,0,169.458-38.467Z" transform="translate(640.73 288.122)" fill="#fff"/>
    <g id="Group_5" data-name="Group 5" transform="translate(537 208)">
      <g id="Group_4" data-name="Group 4" transform="translate(0 0)">
        <rect id="Rectangle_1" data-name="Rectangle 1" width="14.287" height="14.287" transform="translate(20.028 0)" fill="#b33939"/>
        <rect id="Rectangle_2" data-name="Rectangle 2" width="14.287" height="14.287" transform="translate(59.955 0)" fill="#fff"/>
        <rect id="Rectangle_4" data-name="Rectangle 4" width="14.287" height="14.287" transform="translate(39.928 20.027)" fill="#fff"/>
        <rect id="Rectangle_6" data-name="Rectangle 6" width="14.287" height="14.287" transform="translate(0 20.027)" fill="#fff"/>
        <rect id="Rectangle_8" data-name="Rectangle 8" width="14.287" height="14.287" transform="translate(20.028 39.927)" fill="#fff"/>
        <rect id="Rectangle_12" data-name="Rectangle 12" width="14.287" height="14.287" transform="translate(20.028 59.955)" fill="#b33939"/>
        <rect id="Rectangle_11" data-name="Rectangle 11" width="14.287" height="14.287" transform="translate(39.928 59.955)" fill="#307093"/>
        <rect id="Rectangle_10" data-name="Rectangle 10" width="14.287" height="14.287" transform="translate(59.955 39.927)" fill="#fff"/>
        <rect id="Rectangle_3" data-name="Rectangle 3" width="14.287" height="14.287" transform="translate(59.955 20.027)" fill="#307093"/>
        <rect id="Rectangle_7" data-name="Rectangle 7" width="14.287" height="14.287" transform="translate(0 39.927)" fill="#cbae61"/>
        <rect id="Rectangle_9" data-name="Rectangle 9" width="14.287" height="14.287" transform="translate(39.928 39.927)" fill="#cbae61"/>
      </g>
    </g>
  </g>
</svg>
